<svg id="Layer_1" data-name="Layer 1" xmlns="http://www.w3.org/2000/svg" viewBox="0 0 434.76 237.19"><defs><style>.cls-1{fill:none;stroke:#000;stroke-miterlimit:10;}.cls-2{fill:#fff;}</style></defs><path d="M1170.78,626.22c-35.58,37-142.56,39.57-238.87,27.79-96.57-10.9-182.47-36.19-182.22-34.87.38-.09-6.35-33.13-.55-69,4.57-36,21.67-74.88,41.39-90,45.82-34.45,116.46-41,190.84-33,72,7,147.73,28.68,148.57,27.82-.61,0,22.26,35.28,36.32,74.07C1181.09,567.9,1187.11,610.29,1170.78,626.22Z" transform="translate(-746.27 -423.57)"/><path class="cls-1" d="M1170.78,626.22c-35.58,37-142.56,39.57-238.87,27.79-96.57-10.9-182.47-36.19-182.22-34.87.38-.09-6.35-33.13-.55-69,4.57-36,21.67-74.88,41.39-90,45.82-34.45,116.46-41,190.84-33,72,7,147.73,28.68,148.57,27.82-.61,0,22.26,35.28,36.32,74.07C1181.09,567.9,1187.11,610.29,1170.78,626.22Z" transform="translate(-746.27 -423.57)"/><g id="SvgjsG2245"><path class="cls-2" d="M1093.29,555.07q-4.26-4.89-8.58-9.8c-13.55-25.33-28.91-50.7-44.43-76q11.55-.88,22.88-1.67c15.54,25.16,29.34,50.35,40.47,75.54q1-8.55,1.19-17.06a275.08,275.08,0,0,0-21.16-58q12.91.39,25.83.88c12,26.41,16.35,53.23,15.2,80.44q1.35,5,2.5,10.08a254.24,254.24,0,0,1,4.83,53.8q-20.14,1.11-40.27,2A314.67,314.67,0,0,0,1093.29,555.07ZM896,611.55q.27-14.73,1.11-29.4-.07-9.74.13-19.45c.14-4.09.49-7.82.82-11.11.4-6.07,1.08-11.88,1.34-14.06q2.7-22.53,6.78-45,2.38-11.21,5-22.4l5.85-.18c1.81-.05,3.78-.15,5.8-.26s4.23-.22,6.27-.27c2.39-.06,4.82-.16,7.1-.24,2-.08,4-.15,5.61-.19a29.78,29.78,0,0,1,5.49.2,37.3,37.3,0,0,0,5,.91c1.12.16,2.3.33,3.41.52l5.56,1.08c1.84,1.8,3.73,3.62,5.65,5.43q2,13.17,4.2,26.4l-.15.76v.07c0,.05,0,.36,0,.88-.09,2.54-.4,10.28-.52,18-.32,6.86-.51,12.78-.58,18.6q-3.4,6.23-7,12.45-9.63,3.11-19.44,6.18-9,.36-18,.68.64,16.9,1.78,33.89.33,8.19.74,16.41-7.11.6-14.23,1.16h0c-1.48,0-4.05.08-6.36.21a32.38,32.38,0,0,1-4.4.06Zm23.75-109q-1.21,7.09-2.36,14.18-.6,12.59-.79,25.2l8.35,1.69L941.13,542l3.38-3.25v-.22c.05-1.76.54-7.79,1-13.11.35-4.29.66-8,.69-8.87a68.91,68.91,0,0,0-1.22-8.48c-.19-1.05-.35-1.95-.42-2.48l0-.14q-2.19-2.67-4.29-5.32l-6.2-1.55-12.58.16C920.9,500,920.35,501.29,919.79,502.54Zm64.75,110.85q0-15.1-.22-30.14-.8-10-1.68-19.89c-.31-4.19-.43-8-.54-11.38-.41-6.21-.64-12.15-.73-14.39q-.95-23-2.5-46-.43-11.43-1.07-22.84l5.85,0c1.81,0,3.77-.07,5.77-.13s4.2-.12,6.25-.13c2.38,0,4.8,0,7.08-.08,2,0,3.92-.06,5.59-.05a30.41,30.41,0,0,1,5.58.33,45,45,0,0,0,5.25,1c1.18.19,2.41.39,3.58.61l5.89,1.2q3.57,2.79,7.22,5.57,5.64,13.21,10.81,26.46c0,.25,0,.5,0,.76l0,.06.17.89c.47,2.54,1.83,10.27,3.12,18,1,6.84,1.74,12.77,2.55,18.6q-2.47,6.24-5.26,12.51-9.24,3.18-18.7,6.35l-17.92.84q2.57,17.13,4.54,34.34.72,8.31,1.28,16.63-7.11.78-14.21,1.53h0c-1.48,0-4,.18-6.36.37a32.42,32.42,0,0,1-4.39.17ZM994.91,502q.4,7.2.69,14.41,1.95,12.8,3.66,25.63l8.62,1.7,15.92-1.62q1.46-1.65,2.88-3.3l0-.22c-.22-1.77-.7-7.86-1.24-13.21-.43-4.33-.86-8.06-1-8.95a71.21,71.21,0,0,0-3-8.55c-.41-1.07-.77-2-1-2.51l-.06-.15c-1.85-1.8-3.68-3.61-5.5-5.41l-6.59-1.64H995.7C995.45,499.46,995.18,500.73,994.91,502ZM777.8,606.64q2.72-51,28.86-102.31-6.82-.43-13.6-.83a272.27,272.27,0,0,1,16.26-28.31l4.74-.79q24.36-1.36,48.83-2.29-4.25,11.64-7.53,23.33-13,2.32-26.22,4.64a280.47,280.47,0,0,0-20.25,108.63Q793.35,607.73,777.8,606.64Zm68.36,3.06c-.32-2.8-.62-5.6-.88-8.4a394.43,394.43,0,0,1,5.55-51.08,451.22,451.22,0,0,1,11.62-44.6q14,.11,28,.27-3.13,11.82-5.87,23.65c-2,16.4-3.11,32.86-3.54,49.36q-2,16.19-3.07,32.39l-2.48.23Q860.85,610.67,846.16,609.7Zm22.73-126.47q2.15-6.5,4.54-13l2.42-1.72q11.64-.36,23.32-.63c-.3,2.35-.57,4.71-.81,7.06q-1.65,6.42-3.16,12.84-1.07,3.22-2.12,6.45-13.7.39-27.39.84Q867.18,489.16,868.89,483.23Z" transform="translate(-746.27 -423.57)"/><path d="M875.79,469q11.41-.36,22.88-.61-.42,3.27-.76,6.55-1.65,6.38-3.16,12.77c-.66,2-1.33,4-2,6q-13.23.38-26.48.82,1.43-5.67,3.05-11.33,2.1-6.37,4.43-12.76c.68-.47,1.35-.95,2-1.43m233.48.43c11.7,26.18,16,52.76,14.86,79.72v.15l.05.15c.88,3.32,1.71,6.65,2.46,10a255.2,255.2,0,0,1,4.82,53.33q-19.53,1.07-39.06,2a312.71,312.71,0,0,0,1.47-59.41l0-.39-.28-.32-8.39-9.57c-13.47-25.09-28.71-50.22-44.13-75.29q11.13-.86,22-1.61c15,24.36,28.33,48.76,39.2,73.16.57,1.28,1.14,2.57,1.7,3.86.14-1.23.28-2.47.41-3.7q.78-7.59,1-15.14v-.13l0-.13a274.82,274.82,0,0,0-21-57.44q12.47.36,24.92.84m-295.55,5.43q24.21-1.35,48.56-2.26Q858.2,483.8,855,495q-12.5,2.25-25.27,4.49l-.91.16-.36.89a279.35,279.35,0,0,0-20.16,107.62q-15-.95-29.91-2,2.79-50.54,28.52-101.42l.46-.9-.85-.05L793.76,503a274.57,274.57,0,0,1,15.71-27.45l4.25-.7m194.74-6a31.91,31.91,0,0,1,5.46.3,41.26,41.26,0,0,0,5.34,1.05c1.18.19,2.4.39,3.56.6l5.78,1.18q3.42,2.67,6.92,5.34,5.55,13.06,10.65,26.16c0,.2,0,.39,0,.59v.09l0,.13c0,.08.07.38.16.88.48,2.55,1.83,10.29,3.11,18,.94,6.82,1.71,12.71,2.51,18.52q-2.41,6.09-5.13,12.2-9.1,3.14-18.42,6.27l-17.26.8-1.15,0c.06.37.12.75.17,1.12q2.5,16.83,4.43,33.76.71,8.05,1.25,16.13-6.79.75-13.6,1.46c-1.56,0-4.13.19-6.45.38h-.06a31,31,0,0,1-4.23.17l-6.43-1.09q0-14.88-.22-29.69v-.06q-.79-9.95-1.68-19.85c-.32-4.18-.44-8-.56-11.39-.41-6.19-.65-12.12-.74-14.36q-1-23-2.56-45.92-.44-11.19-1.08-22.35l5.45,0c1.82,0,3.75-.07,5.79-.13s4.21-.12,6.26-.13c2.39,0,4.78,0,7.1-.08,2,0,3.93-.05,5.6-.05m-.56,75.4.16,0,15.66-1.6.38,0,.24-.27,2.63-3,.27-.32c0-.14,0-.29,0-.44-.22-1.76-.71-7.84-1.26-13.19-.43-4.33-.87-8.06-1-9a65.83,65.83,0,0,0-3-8.67c-.42-1.06-.78-2-1-2.5l-.1-.29-.23-.22c-1.78-1.73-3.53-3.45-5.28-5.18l-.24-.24-.3-.08-6.37-1.59-.11,0h-13c0,.23-.09.47-.14.71-.24,1.13-.47,2.25-.71,3.38l0,.15v.15q.41,7.15.67,14.33v.13q1.89,12.56,3.58,25.16c0,.27.07.55.11.82l.82.16,8.13,1.61.16,0m-66-74.75a30.36,30.36,0,0,1,5.37.18,36.08,36.08,0,0,0,5,.92c1.13.16,2.3.33,3.39.52l5.46,1.06q2.65,2.59,5.43,5.21,2,13,4.11,26.1c0,.19-.08.39-.11.59l0,.09v.13c0,.08,0,.38,0,.88-.09,2.55-.41,10.29-.55,18-.32,6.81-.52,12.7-.6,18.5q-3.32,6.08-6.81,12.15-9.48,3.07-19.15,6.1-8.65.35-17.34.66l-1.14,0c0,.37,0,.74,0,1.1q.63,16.6,1.74,33.31Q927,603,927.4,611l-13.62,1.12c-1.56,0-4.14.08-6.46.21h-.06a31.24,31.24,0,0,1-4.23.06l-6.41-1.22q.27-14.5,1.1-29v-.07q-.08-9.71.11-19.4c.14-4.08.49-7.81.82-11.13.39-6,1.06-11.85,1.32-14q2.67-22.53,6.71-44.95,2.31-11,4.9-21.92l5.44-.16c1.82-.06,3.77-.16,5.82-.27s4.24-.21,6.29-.26c2.39-.06,4.79-.16,7.12-.25,2-.07,4-.14,5.62-.18m-16.94,74.61.16,0L941,542.59l.39,0,.28-.27,3.08-3L945,539v-.44c.05-1.75.54-7.77,1-13.08.35-4.3.65-8,.68-8.9a65,65,0,0,0-1.24-8.6c-.19-1-.35-1.95-.42-2.47l0-.29-.17-.22c-1.4-1.69-2.76-3.39-4.11-5.08l-.18-.24-.29-.07-6-1.51-.11,0H934l-12.17.16h-.68c-.11.23-.21.47-.31.7-.5,1.12-1,2.23-1.49,3.34l-.06.15,0,.15c-.81,4.69-1.6,9.4-2.37,14.1v.12q-.6,12.34-.8,24.73c0,.27,0,.54,0,.81l.8.16,7.89,1.6.15,0m-62.15-38q13.51.11,27.09.26-3.07,11.55-5.76,23.11l0,0v.06q-3,24.55-3.57,49.25-1.95,16-3,31.94l-2,.18q-14.41-.82-28.83-1.77-.45-4-.82-7.9a396,396,0,0,1,5.51-51.07,451.16,451.16,0,0,1,11.41-44.11M875.9,468c-.93.66-1.86,1.33-2.81,2q-2.46,6.63-4.67,13.27-1.78,6.17-3.34,12.32,14.16-.47,28.31-.85,1.13-3.5,2.28-7,1.5-6.48,3.14-12.94c.26-2.49.54-5,.86-7.47q-11.91.27-23.77.65Zm233.8.45q-13.37-.53-26.73-.92a275.47,275.47,0,0,1,21.3,58.41q-.21,7.54-1,15.14c-11.07-24.69-24.71-49.4-40-74.06q-11.74.81-23.72,1.73c15.61,25.55,31.09,51.17,44.74,76.74q4.26,4.85,8.47,9.69a315.26,315.26,0,0,1-1.64,60.66q20.75-.93,41.48-2.08a253.78,253.78,0,0,0-4.83-54.31q-1.15-5-2.49-10c1.14-27.41-3.35-54.42-15.56-81Zm-295.35,5.45-5.18.87A273.56,273.56,0,0,0,792.35,504q6.76.41,13.6.83-26.09,51.33-28.75,102.29,16.14,1.15,32.28,2.17a281.48,281.48,0,0,1,20-108.76q13.29-2.31,26.27-4.63,3.38-12.17,7.79-24.27-24.64.93-49.16,2.33Zm193.88-6.09c-3.54,0-8.16.12-12.65.13-4,0-8.3.23-12,.26l-6.25,0q.63,11.66,1.06,23.37,1.51,22.91,2.43,46c.09,2.2.32,8.19.72,14.39.11,3.4.22,7.2.54,11.41q.87,9.92,1.67,19.86.24,15.25.2,30.59l7.48,1.27a33.65,33.65,0,0,0,4.49-.17c2.36-.19,4.92-.38,6.42-.37q7.38-.78,14.75-1.59-.57-8.58-1.33-17.15-1.92-16.94-4.47-33.79l17.44-.81q9.6-3.22,19-6.45,2.85-6.4,5.39-12.8c-1-7-1.83-13.36-2.58-18.73-1.58-9.35-3.27-18.68-3.33-18.88s0-.52,0-.79q-5.23-13.4-11-26.77-3.81-2.9-7.51-5.79l-6-1.22c-3.23-.62-6.87-1-8.78-1.63a28.26,28.26,0,0,0-5.66-.34Zm-.37,75.37-8.12-1.6Q998,529,996.11,516.44q-.29-7.17-.71-14.33c.24-1.13.48-2.26.71-3.39h12.22l6.39,1.59q2.61,2.59,5.26,5.18c.72,2,3.59,9,3.91,11s1.92,18.95,2.23,22.16l-2.63,3-15.63,1.6Zm-65.92-74.72c-3.54.08-8.19.32-12.68.44-4,.1-8.36.42-12,.53l-6.25.2q-2.76,11.44-5.21,22.91-4.12,22.44-6.84,45c-.26,2.14-.95,8-1.36,14.06-.33,3.32-.69,7-.83,11.14q-.21,9.69-.13,19.4Q895.72,597,895.45,612l7.47,1.42a33.67,33.67,0,0,0,4.49-.06c2.36-.13,4.92-.25,6.42-.21q7.39-.58,14.77-1.2-.42-8.48-.77-16.93c-.73-11.15-1.34-22.26-1.77-33.35q8.76-.31,17.51-.66,9.95-3.11,19.72-6.27,3.66-6.36,7.13-12.74c.08-7,.32-13.35.56-18.73.15-9.35.55-18.68.54-18.88l.15-.79q-2.24-13.4-4.29-26.71c-2-1.89-4-3.77-5.88-5.65l-5.67-1.1c-3.06-.54-6.58-.87-8.32-1.43a28.24,28.24,0,0,0-5.57-.21Zm-16.89,74.6-7.87-1.6q.2-12.39.75-24.73,1.13-7.05,2.33-14.11l1.47-3.34q6.1-.09,12.22-.15l6,1.5c1.34,1.7,2.71,3.39,4.1,5.09.27,2,1.68,8.87,1.62,10.85s-1.6,18.8-1.7,22l-3.08,3-15.85,1.55Zm-62.92-38a445.08,445.08,0,0,0-11.84,45.11,391.63,391.63,0,0,0-5.58,51.12q.4,4.41.93,8.85,15,1,29.92,1.85l3-.27q1.1-16.46,3.09-32.88.61-24.74,3.49-49.32,2.77-12.11,6-24.2-14.54-.17-29-.26Z" transform="translate(-746.27 -423.57)"/></g></svg>